<svg width="42" height="42" viewBox="0 0 100 100" xmlns="http://www.w3.org/2000/svg">
  
  <defs>
    <linearGradient id="gSuit" x1="0%" y1="0%" x2="0%" y2="100%">
      <stop offset="0%" stop-color="#2a3543"></stop>
      <stop offset="100%" stop-color="#161e29"></stop>
    </linearGradient>
    <linearGradient id="gShimmer" x1="0%" y1="0%" x2="100%" y2="0%">
      <stop offset="0%" stop-color="rgba(255,255,255,0)"></stop>
      <stop offset="50%" stop-color="rgba(255,255,255,0.25)"></stop>
      <stop offset="100%" stop-color="rgba(255,255,255,0)"></stop>
    </linearGradient>
    <linearGradient id="gHead" x1="0%" y1="0%" x2="0%" y2="100%">
      <stop offset="0%" stop-color="#e8c89a"></stop>
      <stop offset="100%" stop-color="#c69a6c"></stop>
    </linearGradient>
  </defs>

  
  <path d="M22 72 L50 86 L78 72 V100 H22 Z" fill="url(#gSuit)"></path>

  
  <g stroke="#ffffff" stroke-width="1.2" opacity="0.18" stroke-linecap="round">
    <path d="M32 72 V100"></path>
    <path d="M42 80 V100"></path>
    <path d="M58 80 V100"></path>
    <path d="M68 72 V100"></path>
  </g>

  
  <rect x="22" y="72" width="56" height="28" fill="url(#gShimmer)">
    
  </rect>

  
  <path d="M50 86 L56 100 L44 100 Z" fill="#c93333"></path>
  <line x1="50" y1="86" x2="50" y2="100" stroke="#7a1f1f" stroke-width="0.8" opacity="0.5"></line>

  
  <ellipse cx="50" cy="48" rx="19" ry="24" fill="url(#gHead)" stroke="#8a6440" stroke-width="1"></ellipse>

  
  <path d="M31 40 Q31 22 50 22 Q69 22 69 40 L69 32 Q69 26 50 26 Q31 26 31 32 Z" fill="#3a2a1a"></path>

  
  <path d="M40 48 L46 48 M54 48 L60 48" stroke="#1a1208" stroke-width="1.8" stroke-linecap="round"></path>

  
  <path d="M44 60 Q50 63 56 60" fill="none" stroke="#1a1208" stroke-width="1.4" stroke-linecap="round"></path>
</svg>